<?xml version="1.0" encoding="UTF-8"?>
<svg version="1.1" xmlns="http://www.w3.org/2000/svg" width="1024" height="1536">
<path d="M0 0 C337.92 0 675.84 0 1024 0 C1024 506.88 1024 1013.76 1024 1536 C686.08 1536 348.16 1536 0 1536 C0 1029.12 0 522.24 0 0 Z " fill="#FDFDFD" transform="translate(0,0)"/>
<path d="M0 0 C45.69935249 -0.04591062 91.39870251 -0.08108649 137.09807357 -0.10213066 C142.5095556 -0.10463168 147.92103757 -0.10722036 153.33251953 -0.10986328 C154.40971876 -0.1103879 155.48691799 -0.11091252 156.59675962 -0.11145304 C173.97333807 -0.12012425 191.3499031 -0.13587586 208.72647363 -0.15430559 C226.5943834 -0.17309652 244.4622862 -0.18413602 262.33020544 -0.18817699 C273.33025953 -0.19090311 284.33027569 -0.19947087 295.33031809 -0.21583293 C302.9027462 -0.2265137 310.47515507 -0.22957595 318.04759014 -0.22700275 C322.39780275 -0.22573844 326.74794972 -0.22748968 331.09815025 -0.23841095 C347.57180224 -0.27758232 363.98811521 -0.12875115 380.43469238 0.88919067 C381.70181926 0.96678175 382.96894614 1.04437282 384.27447081 1.12431514 C392.58537068 1.69432271 400.76989967 2.72470831 409 4 C410.81166617 4.27181821 410.81166617 4.27181821 412.65993166 4.5491277 C441.70372051 8.91483625 469.33131882 16.28460776 497 26 C497.81887695 26.28198242 498.63775391 26.56396484 499.48144531 26.85449219 C519.54198985 33.77542625 538.68872515 43.33836372 557 54 C558.15556396 54.67264893 558.15556396 54.67264893 559.33447266 55.35888672 C570.63899864 61.99441169 581.4392955 69.23925944 592 77 C592.58088379 77.42635742 593.16176758 77.85271484 593.76025391 78.29199219 C612.81395024 92.37977353 630.79825566 108.60594718 646.52148438 126.33447266 C647.53078604 127.47143698 648.54535725 128.60373975 649.56445312 129.73193359 C658.49508305 139.62019182 666.41874512 150.04875187 674 161 C674.69851074 162.00643555 674.69851074 162.00643555 675.41113281 163.03320312 C680.69781306 170.69294724 685.57476536 178.49947715 690.10546875 186.62890625 C692.54838027 190.97577768 695.14205729 195.22701299 697.75 199.4765625 C699 202 699 202 699 206 C699.66 206 700.32 206 701 206 C713.89599599 232.12734885 722.9627549 258.77606149 730 287 C730.39735352 288.57612061 730.39735352 288.57612061 730.80273438 290.18408203 C731.61466326 293.43130611 732.4040964 296.68328623 733.1875 299.9375 C733.42525146 300.8867334 733.66300293 301.8359668 733.90795898 302.81396484 C738.542381 322.50336436 739.47159915 342.33995862 739.33618164 362.4921875 C739.31243299 366.26063298 739.31567221 370.0283726 739.32226562 373.796875 C739.3020123 391.66279239 738.27438268 409.13793115 735.1875 426.75 C735.01500732 427.74765381 734.84251465 428.74530762 734.66479492 429.77319336 C734.12339632 432.85141731 733.56502055 435.92603093 733 439 C732.82629883 439.9585791 732.65259766 440.9171582 732.47363281 441.90478516 C730.14244273 454.54535098 727.05425278 466.9063982 723.5 479.25 C723.31458649 479.8998587 723.12917297 480.54971741 722.93814087 481.2192688 C720.49007052 489.74766775 717.55531669 497.87526124 714 506 C713.20493676 507.91526021 712.41288509 509.83177574 711.625 511.75 C710.75018305 513.83341021 709.87517151 515.91673871 709 518 C708.52175781 519.16789063 708.04351563 520.33578125 707.55078125 521.5390625 C702.57036744 533.4932957 696.39825065 544.75315223 690 556 C689.49774902 556.88333008 688.99549805 557.76666016 688.47802734 558.67675781 C682.10303428 569.79714023 675.18180555 580.18839177 667.30615234 590.296875 C665.48690763 592.66903409 663.77906415 595.11540645 662.0625 597.5625 C654.59302736 607.85992113 645.83752716 617.19521157 637.1875 626.5 C636.58993896 627.14606201 635.99237793 627.79212402 635.37670898 628.45776367 C631.74548666 632.32422714 627.95096362 635.87137271 623.92651367 639.32519531 C622.1552474 640.86503648 620.44659351 642.44503894 618.75390625 644.0703125 C610.01764987 652.45206594 600.74253633 659.82539214 591 667 C590.11924805 667.65863037 590.11924805 667.65863037 589.22070312 668.33056641 C566.21786077 685.52901593 540.66074908 699.77726487 514.26708984 711.02978516 C512.13409958 711.94261127 510.013934 712.88037806 507.89453125 713.82421875 C495.30390265 719.32907971 482.17662004 723.16382561 469 727 C468.27603027 727.21253418 467.55206055 727.42506836 466.80615234 727.64404297 C448.11947412 733.07364577 428.85334397 737.16365683 409.55908203 739.66455078 C406.79561296 740.02679143 404.03687446 740.41753356 401.27734375 740.80859375 C399.26841015 741.082062 397.25929744 741.35421802 395.25 741.625 C393.95026245 741.81002075 393.95026245 741.81002075 392.62426758 741.9987793 C370.57517789 744.84426778 348.05456577 744.14396081 325.86349177 744.11606562 C321.47532462 744.11168254 317.0871586 744.11321302 312.69898987 744.1139679 C305.12503705 744.11448823 297.55109296 744.11139321 289.97714233 744.10573006 C279.02694253 744.09754784 268.07674688 744.094993 257.12654436 744.09374207 C239.35372901 744.09156202 221.5809183 744.08493054 203.80810547 744.07543945 C186.5597333 744.06623809 169.31136241 744.05918212 152.06298828 744.05493164 C150.98613663 744.05466364 149.90928499 744.05439565 148.79980147 744.05411953 C140.37612854 744.05203969 131.95245558 744.05008291 123.52878261 744.04816496 C82.35251748 744.03875833 41.17626398 744.01863367 0 744 C0 683.28 0 622.56 0 560 C10.96173312 556.5744584 21.92711759 553.17315694 32.92382812 549.86328125 C34.5412793 549.37021484 34.5412793 549.37021484 36.19140625 548.8671875 C37.14217041 548.57956543 38.09293457 548.29194336 39.07250977 547.99560547 C42.11026886 547.00785105 42.11026886 547.00785105 45.38476562 545.52392578 C49.08209406 543.96539498 52.79541908 542.81854121 56.65234375 541.75 C66.74842597 538.86347164 76.64391251 535.43910362 86.5625 532 C90.06281461 530.7887872 93.56407491 529.58036892 97.06640625 528.375 C98.33564438 527.93764526 98.33564438 527.93764526 99.63052368 527.49145508 C105.59862641 525.44738911 111.6020949 523.55092055 117.63432312 521.70648193 C122.10558761 520.32310967 126.42238423 518.71267634 130.74121094 516.91601562 C134.63743889 515.33596296 138.63001921 514.0549776 142.625 512.75 C143.5130835 512.45625488 144.40116699 512.16250977 145.31616211 511.85986328 C149.24613975 510.56021787 153.17874875 509.26872629 157.11279297 507.98144531 C160.26393607 506.94970242 163.41321546 505.91239974 166.5625 504.875 C167.52430176 504.56272461 168.48610352 504.25044922 169.47705078 503.92871094 C174.31390304 502.33333989 179.02967335 500.60510169 183.71484375 498.60546875 C191.0146965 495.50608993 198.49426552 492.98019077 206 490.4375 C207.3855392 489.96455152 208.7709564 489.49124549 210.15625 489.01757812 C216.21838706 486.9481526 222.2874721 484.90397733 228.375 482.91015625 C232.69010475 481.47695853 236.88946508 479.86760253 241.09667969 478.14746094 C247.87380311 475.46898128 254.76543026 473.08262362 261.625 470.625 C273.11734969 466.50360563 284.57740456 462.31102006 296 458 C298.3952521 457.10260538 300.79139884 456.20762702 303.1875 455.3125 C306.12592872 454.21079814 309.06304509 453.10562448 312 452 C313.01723145 451.61714844 314.03446289 451.23429687 315.08251953 450.83984375 C332.41878038 444.30784629 349.7036234 437.65859419 366.92333984 430.82415771 C368.36756158 430.25099389 369.81190664 429.67814077 371.25634766 429.10552979 C393.09763685 420.44679359 414.8712857 411.65373097 436.50244141 402.48193359 C439.87828828 401.05156988 443.25697026 399.62814773 446.63671875 398.20703125 C482.89299695 382.94758103 518.90170279 367.11612903 554.5 350.375 C555.17671753 350.05719574 555.85343506 349.73939148 556.55065918 349.41195679 C564.49394615 345.6763286 572.37626555 341.83482287 580.21815491 337.89082336 C586.25041424 334.86091528 592.33781589 331.95404061 598.4375 329.0625 C606.42794707 325.25231016 614.33101643 321.33550518 622.12548828 317.1394043 C626.48087012 314.7949699 630.87362532 312.55656496 635.3125 310.375 C657.55429298 299.33740082 678.91887766 287.09205963 700 274 C701.74703634 272.92389532 703.4943977 271.84831799 705.2421875 270.7734375 C706.703605 269.87056816 708.16458786 268.96699464 709.625 268.0625 C710.26405273 267.66764404 710.90310547 267.27278809 711.56152344 266.8659668 C713.94002295 265.37789199 716.00837104 263.99162896 718 262 C694.47093476 228.66715758 657.69328618 204.83163893 618.5625 194.25 C617.88550049 194.06356934 617.20850098 193.87713867 616.51098633 193.68505859 C602.12959239 190.0127228 587.70386196 188.5119783 572.89282227 188.66381836 C570.43407419 188.68753304 567.97641311 188.68432512 565.51757812 188.67773438 C550.80007975 188.70216882 536.23278055 189.76417015 521.9375 193.4375 C520.6700293 193.74397461 520.6700293 193.74397461 519.37695312 194.05664062 C513.8143615 195.43123024 508.41214731 197.12578776 503 199 C501.64335567 199.4535036 500.28658736 199.90663651 498.9296875 200.359375 C489.30746046 203.63060331 480.0832686 207.43429513 471 212 C469.61433838 212.69488525 469.61433838 212.69488525 468.20068359 213.40380859 C433.91287778 230.69797679 402.0024813 252.09717102 371.71630859 275.66943359 C368.40756914 278.23453032 365.07712435 280.77132832 361.75 283.3125 C361.03465088 283.85962646 360.31930176 284.40675293 359.58227539 284.97045898 C355.94665039 287.75092971 352.30798983 290.52729264 348.6640625 293.296875 C341.85795804 298.47585284 335.09402376 303.69218473 328.4375 309.0625 C321.42336678 314.71702469 314.24377907 320.12841168 307.01171875 325.5 C305.01156852 326.99137415 303.0201264 328.49363207 301.03125 330 C286.10576226 341.29521209 270.88090101 352.08363572 255 362 C254.32001953 362.42522949 253.64003906 362.85045898 252.93945312 363.28857422 C236.55671759 373.44383998 219.23549472 381.75335302 201 388 C199.76765625 388.43957031 198.5353125 388.87914062 197.265625 389.33203125 C160.63068066 401.93735053 116.41272278 402.25554787 81.13623047 385.09326172 C66.35691191 377.48445946 52.40830646 367.03188784 42 354 C40.90945312 352.64261719 40.90945312 352.64261719 39.796875 351.2578125 C34.04597134 343.79615963 29.54699221 335.7769944 25.1875 327.4375 C24.64851074 326.40955322 24.10952148 325.38160645 23.55419922 324.32250977 C18.36334216 314.17513313 14.15778883 303.74944983 11.375 292.6875 C11.1697168 291.89351807 10.96443359 291.09953613 10.75292969 290.28149414 C9.05913491 283.58033521 7.74830481 276.83751808 6.578125 270.02734375 C6.15981633 267.09338219 6.15981633 267.09338219 5 265 C4.64449579 262.29208108 4.33607414 259.59532278 4.0625 256.87890625 C3.97750244 256.06437485 3.89250488 255.24984344 3.80493164 254.41062927 C3.53297321 251.79494921 3.2665068 249.17874053 3 246.5625 C2.82065412 244.8339489 2.64097042 243.10543281 2.4609375 241.37695312 C1.54854253 232.57048798 1.54854253 232.57048798 1.25050259 229.48975086 C1.09557899 227.94996179 0.92792319 226.41132283 0.73984623 224.87523079 C-0.36792794 214.92314371 -0.13212949 204.92119151 -0.11352539 194.9230957 C-0.11324298 192.79342144 -0.1134023 190.66374708 -0.1139679 188.53407288 C-0.11425377 182.77870086 -0.10839093 177.02334987 -0.10139394 171.26798272 C-0.09512549 165.24353153 -0.09455384 159.21907981 -0.09336853 153.19462585 C-0.09026549 141.79812928 -0.08206598 130.40164235 -0.07201904 119.00515002 C-0.06082597 106.02569939 -0.05533941 93.04624829 -0.05032361 80.06679404 C-0.03988248 53.37785736 -0.02230298 26.68892922 0 0 Z " fill="#19ABC1" transform="translate(163,365)"/>
<path d="M0 0 C45.69935249 -0.04591062 91.39870251 -0.08108649 137.09807357 -0.10213066 C142.5095556 -0.10463168 147.92103757 -0.10722036 153.33251953 -0.10986328 C154.40971876 -0.1103879 155.48691799 -0.11091252 156.59675962 -0.11145304 C173.97333807 -0.12012425 191.3499031 -0.13587586 208.72647363 -0.15430559 C226.5943834 -0.17309652 244.4622862 -0.18413602 262.33020544 -0.18817699 C273.33025953 -0.19090311 284.33027569 -0.19947087 295.33031809 -0.21583293 C302.9027462 -0.2265137 310.47515507 -0.22957595 318.04759014 -0.22700275 C322.39780275 -0.22573844 326.74794972 -0.22748968 331.09815025 -0.23841095 C347.57180224 -0.27758232 363.98811521 -0.12875115 380.43469238 0.88919067 C381.70181926 0.96678175 382.96894614 1.04437282 384.27447081 1.12431514 C392.58537068 1.69432271 400.76989967 2.72470831 409 4 C410.81166617 4.27181821 410.81166617 4.27181821 412.65993166 4.5491277 C441.70372051 8.91483625 469.33131882 16.28460776 497 26 C497.81887695 26.28198242 498.63775391 26.56396484 499.48144531 26.85449219 C519.54198985 33.77542625 538.68872515 43.33836372 557 54 C558.15556396 54.67264893 558.15556396 54.67264893 559.33447266 55.35888672 C570.63899864 61.99441169 581.4392955 69.23925944 592 77 C592.58088379 77.42635742 593.16176758 77.85271484 593.76025391 78.29199219 C612.81395024 92.37977353 630.79825566 108.60594718 646.52148438 126.33447266 C647.53078604 127.47143698 648.54535725 128.60373975 649.56445312 129.73193359 C658.49508305 139.62019182 666.41874512 150.04875187 674 161 C674.69851074 162.00643555 674.69851074 162.00643555 675.41113281 163.03320312 C680.69781306 170.69294724 685.57476536 178.49947715 690.10546875 186.62890625 C692.54838027 190.97577768 695.14205729 195.22701299 697.75 199.4765625 C699 202 699 202 699 206 C699.66 206 700.32 206 701 206 C706.07501284 216.28200001 710.80159034 226.63879483 715 237.3125 C715.38534912 238.28388916 715.77069824 239.25527832 716.16772461 240.25610352 C720.75223513 252.09433766 720.75223513 252.09433766 719.0625 256.375 C718.711875 256.91125 718.36125 257.4475 718 258 C714.91669285 256.64101276 712.96504531 255.15235127 710.71484375 252.65625 C709.80412109 251.65984497 709.80412109 251.65984497 708.875 250.64331055 C707.9159375 249.58237183 707.9159375 249.58237183 706.9375 248.5 C682.90696247 222.46981153 652.89849242 203.53504406 618.5625 194.25 C617.88550049 194.06356934 617.20850098 193.87713867 616.51098633 193.68505859 C602.12959239 190.0127228 587.70386196 188.5119783 572.89282227 188.66381836 C570.43407419 188.68753304 567.97641311 188.68432512 565.51757812 188.67773438 C550.80007975 188.70216882 536.23278055 189.76417015 521.9375 193.4375 C520.6700293 193.74397461 520.6700293 193.74397461 519.37695312 194.05664062 C513.8143615 195.43123024 508.41214731 197.12578776 503 199 C501.64335567 199.4535036 500.28658736 199.90663651 498.9296875 200.359375 C489.30746046 203.63060331 480.0832686 207.43429513 471 212 C469.61433838 212.69488525 469.61433838 212.69488525 468.20068359 213.40380859 C433.91287778 230.69797679 402.0024813 252.09717102 371.71630859 275.66943359 C368.40756914 278.23453032 365.07712435 280.77132832 361.75 283.3125 C361.03465088 283.85962646 360.31930176 284.40675293 359.58227539 284.97045898 C355.94665039 287.75092971 352.30798983 290.52729264 348.6640625 293.296875 C341.85795804 298.47585284 335.09402376 303.69218473 328.4375 309.0625 C321.42336678 314.71702469 314.24377907 320.12841168 307.01171875 325.5 C305.01156852 326.99137415 303.0201264 328.49363207 301.03125 330 C286.10576226 341.29521209 270.88090101 352.08363572 255 362 C254.32001953 362.42522949 253.64003906 362.85045898 252.93945312 363.28857422 C236.55671759 373.44383998 219.23549472 381.75335302 201 388 C199.76765625 388.43957031 198.5353125 388.87914062 197.265625 389.33203125 C160.63068066 401.93735053 116.41272278 402.25554787 81.13623047 385.09326172 C66.35691191 377.48445946 52.40830646 367.03188784 42 354 C40.90945312 352.64261719 40.90945312 352.64261719 39.796875 351.2578125 C34.04597134 343.79615963 29.54699221 335.7769944 25.1875 327.4375 C24.64851074 326.40955322 24.10952148 325.38160645 23.55419922 324.32250977 C18.36334216 314.17513313 14.15778883 303.74944983 11.375 292.6875 C11.1697168 291.89351807 10.96443359 291.09953613 10.75292969 290.28149414 C9.05913491 283.58033521 7.74830481 276.83751808 6.578125 270.02734375 C6.15981633 267.09338219 6.15981633 267.09338219 5 265 C4.64449579 262.29208108 4.33607414 259.59532278 4.0625 256.87890625 C3.97750244 256.06437485 3.89250488 255.24984344 3.80493164 254.41062927 C3.53297321 251.79494921 3.2665068 249.17874053 3 246.5625 C2.82065412 244.8339489 2.64097042 243.10543281 2.4609375 241.37695312 C1.54854253 232.57048798 1.54854253 232.57048798 1.25050259 229.48975086 C1.09557899 227.94996179 0.92792319 226.41132283 0.73984623 224.87523079 C-0.36792794 214.92314371 -0.13212949 204.92119151 -0.11352539 194.9230957 C-0.11324298 192.79342144 -0.1134023 190.66374708 -0.1139679 188.53407288 C-0.11425377 182.77870086 -0.10839093 177.02334987 -0.10139394 171.26798272 C-0.09512549 165.24353153 -0.09455384 159.21907981 -0.09336853 153.19462585 C-0.09026549 141.79812928 -0.08206598 130.40164235 -0.07201904 119.00515002 C-0.06082597 106.02569939 -0.05533941 93.04624829 -0.05032361 80.06679404 C-0.03988248 53.37785736 -0.02230298 26.68892922 0 0 Z " fill="#2E83C7" transform="translate(163,365)"/>
<path d="M0 0 C0 0.66 0 1.32 0 2 C-0.66 2 -1.32 2 -2 2 C-2.2475 2.804375 -2.495 3.60875 -2.75 4.4375 C-4 7 -4 7 -6.125 7.8125 C-7.053125 7.9053125 -7.053125 7.9053125 -8 8 C-8.0928125 8.59425781 -8.185625 9.18851563 -8.28125 9.80078125 C-9.1730754 12.52957309 -10.27559703 13.40003333 -12.5 15.1875 C-15.66470477 17.82663773 -18.61343479 20.55830942 -21.5 23.5 C-32.27008929 34.38169643 -32.27008929 34.38169643 -38 37 C-38 37.66 -38 38.32 -38 39 C-41.46153846 42 -41.46153846 42 -44 42 C-44 42.66 -44 43.32 -44 44 C-45.43359375 45.48046875 -45.43359375 45.48046875 -47.4375 47.1875 C-48.16453125 47.80753906 -48.8915625 48.42757812 -49.640625 49.06640625 C-51.95736961 50.96506284 -54.31059028 52.80243667 -56.6875 54.625 C-60.06120252 57.21839037 -63.02364979 59.95105588 -66 63 C-71.8420521 68.44688587 -77.88531772 73.60244804 -84.09375 78.625 C-87.20392818 81.16665099 -90.25898038 83.76598007 -93.3125 86.375 C-100.052028 92.11720785 -106.99165283 97.59068902 -114 103 C-114.75152344 103.598125 -115.50304687 104.19625 -116.27734375 104.8125 C-118 106 -118 106 -120 106 C-120 106.66 -120 107.32 -120 108 C-121.94176397 109.68942697 -123.89148154 111.25725226 -125.9375 112.8125 C-126.56358154 113.29605957 -127.18966309 113.77961914 -127.8347168 114.27783203 C-129.88490372 115.85838926 -131.94205391 117.42956272 -134 119 C-135.37262627 120.05308513 -136.74502187 121.10647098 -138.1171875 122.16015625 C-141.67466659 124.88844536 -145.23892814 127.6077416 -148.8046875 130.32519531 C-151.01773829 132.01353254 -153.228061 133.70537707 -155.4375 135.3984375 C-166.41403414 143.80902859 -177.41903253 152.16912174 -188.625 160.2734375 C-190.16772974 161.39496142 -191.6903485 162.54488221 -193.1875 163.7265625 C-195 165 -195 165 -197 165 C-197 165.66 -197 166.32 -197 167 C-201.38461538 170 -201.38461538 170 -204 170 C-204 170.66 -204 171.32 -204 172 C-206.08984375 173.48046875 -206.08984375 173.48046875 -208.9375 175.1875 C-212.53646785 177.40998841 -215.95838796 179.656553 -219.25 182.3125 C-223.72128015 185.88153969 -228.42797641 189.01344717 -233.19897461 192.16064453 C-239.53673654 196.34146036 -245.77538902 200.65252366 -252 205 C-252.88429688 205.61746094 -253.76859375 206.23492188 -254.6796875 206.87109375 C-257.12124632 208.5786637 -259.56083951 210.28900651 -262 212 C-264.49448561 213.74653153 -266.98933686 215.49253915 -269.484375 217.23828125 C-271.20409838 218.44262169 -272.92280232 219.64841879 -274.640625 220.85546875 C-277.09027413 222.57535714 -279.54396627 224.28924547 -282 226 C-282.62390625 226.43828125 -283.2478125 226.8765625 -283.890625 227.328125 C-287.76672535 230 -287.76672535 230 -290 230 C-290.33 230.99 -290.66 231.98 -291 233 C-292.65846812 233.68680836 -294.32774873 234.34746809 -296 235 C-298.82182476 236.70504149 -301.52846461 238.57764288 -304.25 240.4375 C-305.85729929 241.52458223 -307.46539221 242.61049181 -309.07421875 243.6953125 C-309.89067871 244.24606445 -310.70713867 244.79681641 -311.54833984 245.36425781 C-315.35150048 247.9017181 -319.20864019 250.35306653 -323.0625 252.8125 C-328.30322058 256.16751295 -333.2963332 259.65596411 -338.14453125 263.56640625 C-341.98273738 266.53192551 -346.13411718 269.22145875 -351 270 C-351 270.66 -351 271.32 -351 272 C-351.97582031 272.54269531 -352.95164062 273.08539062 -353.95703125 273.64453125 C-355.24233367 274.3669275 -356.52748187 275.08959818 -357.8125 275.8125 C-358.45509766 276.16892578 -359.09769531 276.52535156 -359.75976562 276.89257812 C-363.4280865 278.95030856 -363.4280865 278.95030856 -366.63671875 281.63671875 C-368 283 -368 283 -370.25 283.8984375 C-373.83177994 285.33318458 -376.84022913 287.44921257 -380 289.625 C-386.2913347 293.88588324 -392.6703812 297.95238333 -399.17041016 301.89013672 C-402.0042539 303.60919912 -404.83116624 305.33957319 -407.65893555 307.06860352 C-409.22135663 308.02391427 -410.78402001 308.97882883 -412.34692383 309.93334961 C-416.73631011 312.61412819 -421.12119802 315.30195029 -425.5 318 C-426.50675781 318.61875 -427.51351563 319.2375 -428.55078125 319.875 C-431.28213829 321.55482164 -434.00642135 323.24585413 -436.73046875 324.9375 C-438.38272736 325.95847112 -440.03507071 326.97930513 -441.6875 328 C-442.47898437 328.49371094 -443.27046875 328.98742187 -444.0859375 329.49609375 C-444.82457031 329.95113281 -445.56320312 330.40617187 -446.32421875 330.875 C-446.98510498 331.28492188 -447.64599121 331.69484375 -448.3269043 332.1171875 C-450 333 -450 333 -452 333 C-452 333.66 -452 334.32 -452 335 C-454.31 335.66 -456.62 336.32 -459 337 C-459 337.66 -459 338.32 -459 339 C-460.051875 339.495 -461.10375 339.99 -462.1875 340.5 C-466.48368575 342.64809287 -470.5323021 345.1257975 -474.60644531 347.6652832 C-479.70544409 350.83746808 -484.86884937 353.89027411 -490.05053711 356.92504883 C-494.25986181 359.39035665 -498.46383146 361.86417065 -502.66015625 364.3515625 C-503.62896729 364.92559814 -504.59777832 365.49963379 -505.59594727 366.09106445 C-507.4810726 367.20851033 -509.36570492 368.32678852 -511.24975586 369.44604492 C-516.7842367 372.72421136 -522.36097735 375.90547538 -528 379 C-529.49350078 379.82419846 -530.98699018 380.64841754 -532.48046875 381.47265625 C-547.01531217 389.4739118 -561.56596073 397.44667442 -576.1640625 405.33203125 C-578.23440393 406.45046729 -580.30471653 407.56895668 -582.375 408.6875 C-583.89879272 409.51072754 -583.89879272 409.51072754 -585.45336914 410.35058594 C-591.06334636 413.38804732 -596.64292271 416.46995667 -602.1875 419.625 C-615.15646089 426.98887562 -628.44399919 433.76692741 -641.81640625 440.36352539 C-645.63646109 442.26516684 -649.21847942 444.33185383 -652.78125 446.66796875 C-657.9339245 449.76138777 -663.43513949 452.28149757 -668.82714844 454.9296875 C-672.43498459 456.70685083 -676.02933172 458.51088183 -679.625 460.3125 C-680.90879054 460.95455431 -682.19264168 461.5964875 -683.4765625 462.23828125 C-685.73593756 463.36796878 -687.99507379 464.49813418 -690.25390625 465.62890625 C-692.269603 466.63532098 -694.28980138 467.63273275 -696.3125 468.625 C-698.85406202 469.75158519 -698.85406202 469.75158519 -700 471 C-657.70575169 471.13745319 -615.41152924 471.24311886 -573.11710167 471.30639198 C-568.11932718 471.31389586 -563.12155313 471.32166183 -558.1237793 471.32958984 C-557.12884862 471.33116371 -556.13391794 471.33273757 -555.10883785 471.33435912 C-539.01725191 471.36043854 -522.92579511 471.40773027 -506.83428567 471.46291678 C-490.31230999 471.51910533 -473.79040175 471.55236947 -457.26833445 471.56453097 C-447.08035372 471.57274727 -436.89273806 471.5986597 -426.70486975 471.6474988 C-419.71047644 471.67931271 -412.71627074 471.68877846 -405.72181039 471.68100826 C-401.69144671 471.67718036 -397.66171913 471.68288071 -393.63146973 471.71523285 C-389.93135461 471.74471579 -386.23229528 471.74572587 -382.53212864 471.72539337 C-380.58070061 471.72171009 -378.62928255 471.7473341 -376.67803997 471.77448785 C-368.8891803 471.6965138 -362.86645977 470.22630704 -355.85949728 467.00975653 C-351.26768197 464.91077268 -351.26768197 464.91077268 -348 466 C-348.63808594 466.26554687 -349.27617188 466.53109375 -349.93359375 466.8046875 C-351.17302734 467.33449219 -351.17302734 467.33449219 -352.4375 467.875 C-353.26121094 468.22304687 -354.08492187 468.57109375 -354.93359375 468.9296875 C-357.15746715 469.8244937 -357.15746715 469.8244937 -358 472 C-351.73 472 -345.46 472 -339 472 C-339 472.33 -339 472.66 -339 473 C-348.03794892 473.92540745 -356.99287369 474.14025003 -366.07208252 474.12025452 C-367.5632427 474.12069147 -369.05440281 474.12156865 -370.54556251 474.12284368 C-374.61162528 474.12506434 -378.67766139 474.12110089 -382.74372077 474.11606562 C-387.14027892 474.11172617 -391.5368357 474.11321002 -395.93339539 474.1139679 C-403.54029951 474.11449092 -411.14719503 474.11136726 -418.75409698 474.10573006 C-429.75224876 474.09758504 -440.7503964 474.09499676 -451.74855086 474.09374207 C-469.59457663 474.09155626 -487.44059781 474.08490896 -505.28662109 474.07543945 C-522.61702451 474.06625314 -539.94742667 474.05918974 -557.27783203 474.05493164 C-558.35789965 474.05466364 -559.43796726 474.05439565 -560.5507642 474.05411953 C-568.99825539 474.05203997 -577.4457466 474.05008309 -585.89323783 474.04816496 C-627.26216276 474.03874016 -668.63107621 474.01861974 -710 474 C-710 413.28 -710 352.56 -710 290 C-699.03826688 286.5744584 -688.07288241 283.17315694 -677.07617188 279.86328125 C-675.99787109 279.53457031 -674.91957031 279.20585938 -673.80859375 278.8671875 C-672.85782959 278.57956543 -671.90706543 278.29194336 -670.92749023 277.99560547 C-667.88973114 277.00785105 -667.88973114 277.00785105 -664.61523438 275.52392578 C-660.91790594 273.96539498 -657.20458092 272.81854121 -653.34765625 271.75 C-643.25157403 268.86347164 -633.35608749 265.43910362 -623.4375 262 C-619.93718539 260.7887872 -616.43592509 259.58036892 -612.93359375 258.375 C-611.66435562 257.93764526 -611.66435562 257.93764526 -610.36947632 257.49145508 C-604.40137359 255.44738911 -598.3979051 253.55092055 -592.36567688 251.70648193 C-587.89441239 250.32310967 -583.57761577 248.71267634 -579.25878906 246.91601562 C-575.36256111 245.33596296 -571.36998079 244.0549776 -567.375 242.75 C-566.4869165 242.45625488 -565.59883301 242.16250977 -564.68383789 241.85986328 C-560.75386025 240.56021787 -556.82125125 239.26872629 -552.88720703 237.98144531 C-549.73606393 236.94970242 -546.58678454 235.91239974 -543.4375 234.875 C-542.47569824 234.56272461 -541.51389648 234.25044922 -540.52294922 233.92871094 C-535.68609696 232.33333989 -530.97032665 230.60510169 -526.28515625 228.60546875 C-518.9853035 225.50608993 -511.50573448 222.98019077 -504 220.4375 C-502.6144608 219.96455152 -501.2290436 219.49124549 -499.84375 219.01757812 C-493.78161294 216.9481526 -487.7125279 214.90397733 -481.625 212.91015625 C-477.30989525 211.47695853 -473.11053492 209.86760253 -468.90332031 208.14746094 C-462.12619689 205.46898128 -455.23456974 203.08262362 -448.375 200.625 C-436.88265031 196.50360563 -425.42259544 192.31102006 -414 188 C-411.6047479 187.10260538 -409.20860116 186.20762702 -406.8125 185.3125 C-403.87407128 184.21079814 -400.93695491 183.10562448 -398 182 C-396.98276855 181.61714844 -395.96553711 181.23429688 -394.91748047 180.83984375 C-377.58121962 174.30784629 -360.2963766 167.65859419 -343.07666016 160.82415771 C-341.63243842 160.25099389 -340.18809336 159.67814077 -338.74365234 159.10552979 C-316.90236315 150.44679359 -295.1287143 141.65373097 -273.49755859 132.48193359 C-270.12171172 131.05156988 -266.74302974 129.62814773 -263.36328125 128.20703125 C-227.10700305 112.94758103 -191.09829721 97.11612903 -155.5 80.375 C-154.82328247 80.05719574 -154.14656494 79.73939148 -153.44934082 79.41195679 C-145.50605385 75.6763286 -137.62373445 71.83482287 -129.78184509 67.89082336 C-123.74958576 64.86091528 -117.66218411 61.95404061 -111.5625 59.0625 C-103.57205293 55.25231016 -95.66898357 51.33550518 -87.87451172 47.1394043 C-83.51912988 44.7949699 -79.12637468 42.55656496 -74.6875 40.375 C-54.50429265 30.35898406 -34.98877431 19.41424474 -15.82421875 7.58203125 C-13.88362129 6.38670677 -11.94231655 5.19252905 -10 4 C-9.26217285 3.5467334 -8.5243457 3.0934668 -7.76416016 2.62646484 C-4.9390826 0.94204279 -3.35312591 0 0 0 Z " fill="#155BA6" transform="translate(873,635)"/>
<path d="M0 0 C0.33 0 0.66 0 1 0 C1.00364563 0.66667191 1.00729126 1.33334381 1.01104736 2.0202179 C1.05365182 9.112843 1.12350555 16.20486668 1.20751953 23.29711914 C1.23736849 25.92581718 1.25673474 28.55396386 1.27099609 31.18286133 C1.5836488 85.63654135 14.72101155 140.28623894 54 180 C78.52125942 203.97253194 111.04418772 217.45237782 145 221 C145.98097656 221.10957031 146.96195313 221.21914063 147.97265625 221.33203125 C171.41703099 223.4685174 194.68567738 221.45380377 218 219 C219.81764692 218.81969234 221.63534593 218.63990803 223.453125 218.4609375 C230.53981134 217.73164864 237.32386732 216.58339888 244.203125 214.71484375 C246.9844617 214.00397138 249.72692635 213.50506882 252.5625 213.0625 C257.97021382 212.20639755 263.32667655 211.1698586 268.6875 210.0625 C269.47133057 209.90467041 270.25516113 209.74684082 271.06274414 209.58422852 C274.93452291 208.77359136 278.65634959 207.82602744 282.39453125 206.52734375 C288.41328274 204.44461055 294.60939449 203.2258893 300.828125 201.89453125 C305.02962869 200.97325181 309.1359955 200.01711659 313.19921875 198.59765625 C317.25209198 197.18713724 321.36270336 196.08242617 325.51953125 195.02734375 C326.19080048 194.85695587 326.8620697 194.68656799 327.55368042 194.51101685 C330.35072579 193.80443713 333.14909117 193.10321948 335.94799805 192.40405273 C338.01450969 191.88653255 340.07955355 191.3634454 342.14453125 190.83984375 C343.36503174 190.53425537 344.58553223 190.22866699 345.84301758 189.91381836 C348.48117226 189.15017959 350.59074823 188.26711226 353 187 C355.58151883 186.32334639 358.14663113 185.70186455 360.75 185.125 C362.28279216 184.77579168 363.81533907 184.4255054 365.34765625 184.07421875 C366.12383301 183.89681152 366.90000977 183.7194043 367.69970703 183.53662109 C371.20792901 182.71820973 374.69702151 181.82802006 378.1875 180.9375 C384.2985399 179.3828779 390.43477915 178.03067553 396.62109375 176.80859375 C399.27374783 176.17379676 401.7151242 175.43636695 404.28125 174.54296875 C409.13766195 172.88287136 414.0276155 171.83806131 419.0625 170.875 C419.90876953 170.70613281 420.75503906 170.53726563 421.62695312 170.36328125 C425.57430549 169.5902454 429.49558436 168.90982737 433.4921875 168.44921875 C436.85957875 168.22080594 436.85957875 168.22080594 439.0625 166.9375 C441.98521677 165.52328221 444.79983355 165.94073766 448 166 C448.66 165.67 449.32 165.34 450 165 C451.49613214 164.81873784 452.99743686 164.67899619 454.5 164.5625 C458.85177607 164.16802246 463.02448513 163.4584638 467.28515625 162.5 C496.24885319 157.16567884 538.28006013 155.35395839 566.3046875 164.87109375 C571.08560905 166.33165012 575.92666285 167.33108503 580.8125 168.375 C595.56537428 171.60504506 609.58437625 176.58914321 622.51953125 184.55078125 C624.91205732 186.03468535 624.91205732 186.03468535 627.31640625 186.90625 C631.06206724 188.43286583 634.45793478 190.44751586 637.9375 192.5 C638.68314209 192.93924805 639.42878418 193.37849609 640.19702148 193.83105469 C647.4332999 198.1569652 654.24429806 202.9656613 661 208 C661.87269531 208.64710938 662.74539063 209.29421875 663.64453125 209.9609375 C665.43667165 211.29798095 667.21982471 212.64706678 669 214 C665.12953558 214 663.65372592 212.68335647 660.375 210.625 C633.99794836 194.90621118 602.42808747 187.35077642 571.89282227 187.66381836 C569.43407419 187.68753304 566.97641311 187.68432512 564.51757812 187.67773438 C549.80007975 187.70216882 535.23278055 188.76417015 520.9375 192.4375 C519.6700293 192.74397461 519.6700293 192.74397461 518.37695312 193.05664062 C512.8143615 194.43123024 507.41214731 196.12578776 502 198 C500.64335567 198.4535036 499.28658736 198.90663651 497.9296875 199.359375 C488.30746046 202.63060331 479.0832686 206.43429513 470 211 C468.61433838 211.69488525 468.61433838 211.69488525 467.20068359 212.40380859 C432.91287778 229.69797679 401.0024813 251.09717102 370.71630859 274.66943359 C367.40756914 277.23453032 364.07712435 279.77132832 360.75 282.3125 C360.03465088 282.85962646 359.31930176 283.40675293 358.58227539 283.97045898 C354.94665039 286.75092971 351.30798983 289.52729264 347.6640625 292.296875 C340.85795804 297.47585284 334.09402376 302.69218473 327.4375 308.0625 C320.42336678 313.71702469 313.24377907 319.12841168 306.01171875 324.5 C304.01156852 325.99137415 302.0201264 327.49363207 300.03125 329 C285.10576226 340.29521209 269.88090101 351.08363572 254 361 C253.32001953 361.42522949 252.64003906 361.85045898 251.93945312 362.28857422 C235.55671759 372.44383998 218.23549472 380.75335302 200 387 C198.76765625 387.43957031 197.5353125 387.87914062 196.265625 388.33203125 C159.63068066 400.93735053 115.41272278 401.25554787 80.13623047 384.09326172 C65.35691191 376.48445946 51.40830646 366.03188784 41 353 C39.90945312 351.64261719 39.90945312 351.64261719 38.796875 350.2578125 C33.04597134 342.79615963 28.54699221 334.7769944 24.1875 326.4375 C23.64851074 325.40955322 23.10952148 324.38160645 22.55419922 323.32250977 C17.36334216 313.17513313 13.15778883 302.74944983 10.375 291.6875 C10.1697168 290.89351807 9.96443359 290.09953613 9.75292969 289.28149414 C8.05913491 282.58033521 6.74830481 275.83751808 5.578125 269.02734375 C5.15981633 266.09338219 5.15981633 266.09338219 4 264 C-0.78471779 235.04134289 -0.54584488 205.7620267 -0.40557575 176.51105547 C-0.38011315 170.27857861 -0.37818555 164.04608897 -0.37347412 157.81356812 C-0.36117333 146.07790848 -0.32853154 134.34240268 -0.28807616 122.60680997 C-0.25646533 113.22794851 -0.23450441 103.8491161 -0.21972656 94.47021484 C-0.21867567 93.80513734 -0.21762477 93.14005983 -0.21654204 92.45482846 C-0.21132005 89.11671266 -0.20627479 85.77859664 -0.20129442 82.44048047 C-0.15978326 54.96023591 -0.08968981 27.48012668 0 0 Z " fill="#16349B" transform="translate(164,366)"/>
<path d="M0 0 C3.35305204 2.23536803 3.47013405 2.62547143 4.39453125 6.3125 C4.74004028 7.6581604 4.74004028 7.6581604 5.0925293 9.03100586 C5.33011963 10.01077393 5.56770996 10.99054199 5.8125 12 C6.19498901 13.5324939 6.19498901 13.5324939 6.58520508 15.09594727 C7.12581737 17.27875005 7.66004535 19.46314214 8.18847656 21.64892578 C8.98186767 24.92512505 9.79881134 28.194811 10.6171875 31.46484375 C11.14247475 33.62194623 11.66595865 35.77948878 12.1875 37.9375 C12.42509033 38.88560547 12.66268066 39.83371094 12.9074707 40.81054688 C17.54028056 60.5020143 18.47161182 80.33807335 18.33618164 100.4921875 C18.31243299 104.26063298 18.31567221 108.0283726 18.32226562 111.796875 C18.3020123 129.66279239 17.27438268 147.13793115 14.1875 164.75 C13.92876099 166.24648071 13.92876099 166.24648071 13.66479492 167.77319336 C13.12339632 170.85141731 12.56502055 173.92603093 12 177 C11.73944824 178.43786865 11.73944824 178.43786865 11.47363281 179.90478516 C9.14244273 192.54535098 6.05425278 204.9063982 2.5 217.25 C2.31458649 217.8998587 2.12917297 218.54971741 1.93814087 219.2192688 C-0.50992948 227.74766775 -3.44468331 235.87526124 -7 244 C-7.79506324 245.91526021 -8.58711491 247.83177574 -9.375 249.75 C-10.24981695 251.83341021 -11.12482849 253.91673871 -12 256 C-12.47824219 257.16789062 -12.95648437 258.33578125 -13.44921875 259.5390625 C-18.42963256 271.4932957 -24.60174935 282.75315223 -31 294 C-31.50225098 294.88333008 -32.00450195 295.76666016 -32.52197266 296.67675781 C-38.89696572 307.79714023 -45.81819445 318.18839177 -53.69384766 328.296875 C-55.51309237 330.66903409 -57.22093585 333.11540645 -58.9375 335.5625 C-66.40697264 345.85992113 -75.16247284 355.19521157 -83.8125 364.5 C-84.41006104 365.14606201 -85.00762207 365.79212402 -85.62329102 366.45776367 C-89.25451334 370.32422714 -93.04903638 373.87137271 -97.07348633 377.32519531 C-98.8447526 378.86503648 -100.55340649 380.44503894 -102.24609375 382.0703125 C-110.98235013 390.45206594 -120.25746367 397.82539214 -130 405 C-130.58716797 405.43908691 -131.17433594 405.87817383 -131.77929688 406.33056641 C-154.78213923 423.52901593 -180.33925092 437.77726487 -206.73291016 449.02978516 C-208.86590042 449.94261127 -210.986066 450.88037806 -213.10546875 451.82421875 C-225.69609735 457.32907971 -238.82337996 461.16382561 -252 465 C-252.72396973 465.21253418 -253.44793945 465.42506836 -254.19384766 465.64404297 C-272.86264051 471.06844899 -292.11241337 475.15951579 -311.38818359 477.66015625 C-314.30903622 478.04021111 -317.22650799 478.44257263 -320.14453125 478.84375 C-322.26283796 479.12637403 -324.38132579 479.40764417 -326.5 479.6875 C-327.46703857 479.81922607 -328.43407715 479.95095215 -329.43041992 480.08666992 C-339.73100746 481.39662732 -349.90735125 481.11228481 -360.25 480.5 C-361.10207031 480.45230469 -361.95414063 480.40460938 -362.83203125 480.35546875 C-364.88819013 480.23995421 -366.94412304 480.12042794 -369 480 C-368.67 479.01 -368.34 478.02 -368 477 C-365.93359375 476.05078125 -365.93359375 476.05078125 -363.4375 475.3125 C-362.61121094 475.06113281 -361.78492188 474.80976562 -360.93359375 474.55078125 C-359.97646484 474.27814453 -359.97646484 474.27814453 -359 474 C-359 473.34 -359 472.68 -359 472 C-358.08057617 471.60844727 -358.08057617 471.60844727 -357.14257812 471.20898438 C-344.55967217 465.83513299 -332.13665757 460.31889012 -320 454 C-318.93531494 453.45206787 -318.93531494 453.45206787 -317.84912109 452.89306641 C-308.08520827 447.86767929 -298.44697276 442.63187843 -288.875 437.25 C-287.45368774 436.45396362 -287.45368774 436.45396362 -286.00366211 435.6418457 C-280.92602804 432.76656976 -276.01541284 429.74788326 -271.18896484 426.46923828 C-268.24335388 424.49213737 -265.23011736 422.63303196 -262.21484375 420.76464844 C-253.38484001 415.28459186 -244.92484473 409.47652429 -236.62988281 403.22119141 C-234.2352653 401.42702173 -231.80433707 399.68424236 -229.375 397.9375 C-203.01894763 378.77657172 -179.04084108 357.10654083 -156 334.125 C-155.40932739 333.53700623 -154.81865479 332.94901245 -154.21008301 332.34320068 C-147.91784149 326.0726113 -141.73691376 319.79013096 -136 313 C-134.97861136 311.83153919 -133.95518154 310.66485939 -132.9296875 309.5 C-125.54746244 301.05599719 -118.3770784 292.46209646 -111.3671875 283.70654297 C-110.20821884 282.25990173 -109.04235577 280.8187881 -107.875 279.37890625 C-104.19409268 274.76955579 -101.0157788 269.96604863 -97.90551758 264.95581055 C-96.12203148 262.18929342 -94.23694243 259.56432252 -92.265625 256.9296875 C-87.9097556 250.97725044 -84.0186065 244.79929592 -80.1875 238.5 C-79.48771127 237.3550123 -78.78784026 236.21007489 -78.08789062 235.06518555 C-72.2335077 225.46741654 -66.50342929 215.80341735 -61 206 C-60.6400293 205.36126953 -60.28005859 204.72253906 -59.90917969 204.06445312 C-54.77315494 194.88988596 -50.39384245 185.44120891 -46.15234375 175.82421875 C-44.88041226 172.94622807 -43.58025439 170.09292861 -42.19140625 167.26953125 C-36.45625006 155.54756076 -32.2655214 143.31620429 -28 131 C-27.64760254 129.99727051 -27.29520508 128.99454102 -26.93212891 127.96142578 C-21.39904926 112.19019595 -16.93102181 96.24228451 -13 80 C-12.74436279 78.95126709 -12.48872559 77.90253418 -12.2253418 76.82202148 C-10.30310514 68.7432249 -8.79003167 60.62965904 -7.4375 52.4375 C-7.32950073 51.7869162 -7.22150146 51.1363324 -7.11022949 50.46603394 C-5.02829249 37.86215064 -3.46214655 25.27512719 -2.734375 12.51953125 C-2.69344727 11.81755615 -2.65251953 11.11558105 -2.61035156 10.39233398 C-2.50793505 8.52006051 -2.4250216 6.64674795 -2.34375 4.7734375 C-2 2 -2 2 0 0 Z " fill="#0E9BB6" transform="translate(884,627)"/>
<path d="M0 0 C1.65 0 3.3 0 5 0 C4.34 0.66 3.68 1.32 3 2 C2.68334905 5.19609656 2.68334905 5.19609656 2.7215271 9.03604126 C2.7128385 10.13503834 2.7128385 10.13503834 2.70397437 11.25623739 C2.68690018 13.72376599 2.68409155 16.1911084 2.68115234 18.65869141 C2.67185927 20.42251549 2.66169154 22.18633515 2.65071106 23.95014954 C2.62332694 28.74945541 2.60823682 33.54873181 2.59528303 38.34809542 C2.57968917 43.35965147 2.5528871 48.37114697 2.5272522 53.38265991 C2.48039789 62.87759144 2.44368605 72.37253427 2.41057932 81.8675226 C2.37240483 92.67513951 2.3229825 103.48269571 2.27259517 114.29026151 C2.16917642 136.52679622 2.07994845 158.76336934 2 181 C4.97 180.01 7.94 179.02 11 178 C10.67 178.99 10.34 179.98 10 181 C52.29424831 181.13745319 94.58847076 181.24311886 136.88289833 181.30639198 C141.88067282 181.31389586 146.87844687 181.32166183 151.8762207 181.32958984 C153.36861672 181.33195064 153.36861672 181.33195064 154.89116215 181.33435912 C170.98274809 181.36043854 187.07420489 181.40773027 203.16571433 181.46291678 C219.68769001 181.51910533 236.20959825 181.55236947 252.73166555 181.56453097 C262.91964628 181.57274727 273.10726194 181.5986597 283.29513025 181.6474988 C290.28952356 181.67931271 297.28372926 181.68877846 304.27818961 181.68100826 C308.30855329 181.67718036 312.33828087 181.68288071 316.36853027 181.71523285 C320.06864539 181.74471579 323.76770472 181.74572587 327.46787136 181.72539337 C329.41929939 181.72171009 331.37071745 181.7473341 333.32196003 181.77448785 C341.1108197 181.6965138 347.13354023 180.22630704 354.14050272 177.00975653 C358.73231803 174.91077268 358.73231803 174.91077268 362 176 C361.36191406 176.26554687 360.72382812 176.53109375 360.06640625 176.8046875 C358.82697266 177.33449219 358.82697266 177.33449219 357.5625 177.875 C356.73878906 178.22304687 355.91507813 178.57109375 355.06640625 178.9296875 C352.84253285 179.8244937 352.84253285 179.8244937 352 182 C358.27 182 364.54 182 371 182 C371 182.33 371 182.66 371 183 C361.96205108 183.92540745 353.00712631 184.14025003 343.92791748 184.12025452 C342.4367573 184.12069147 340.94559719 184.12156865 339.45443749 184.12284368 C335.38837472 184.12506434 331.32233861 184.12110089 327.25627923 184.11606562 C322.85972108 184.11172617 318.4631643 184.11321002 314.06660461 184.1139679 C306.45970049 184.11449092 298.85280497 184.11136726 291.24590302 184.10573006 C280.24775124 184.09758504 269.2496036 184.09499676 258.25144914 184.09374207 C240.40542337 184.09155626 222.55940219 184.08490896 204.71337891 184.07543945 C187.38297549 184.06625314 170.05257333 184.05918974 152.72216797 184.05493164 C151.64210035 184.05466364 150.56203274 184.05439565 149.4492358 184.05411953 C141.00174461 184.05203997 132.5542534 184.05008309 124.10676217 184.04816496 C82.73783724 184.03874016 41.36892379 184.01861974 0 184 C0 123.28 0 62.56 0 0 Z " fill="#3061A8" transform="translate(163,925)"/>
<path d="M0 0 C0.99 0.495 0.99 0.495 2 1 C-9.71875 6.859375 -9.71875 6.859375 -11.87768555 7.93701172 C-13.2457114 8.62220493 -14.61191237 9.31105986 -15.97583008 10.00439453 C-21.14382342 12.62236136 -26.39545891 15.01932101 -31.6875 17.375 C-37.23809722 19.85176051 -42.774937 22.35301964 -48.2890625 24.91015625 C-56.20072103 28.57090455 -64.17768476 32.08041463 -72.15820312 35.58789062 C-77.17435363 37.8048628 -82.14686073 40.04014588 -87.01953125 42.55859375 C-91.64718216 44.90932343 -96.39566331 46.73592869 -101.25195312 48.55810547 C-108.1515546 51.17708737 -114.92557371 54.11940345 -121.72167969 56.9934082 C-124.25881689 58.06622819 -126.79726631 59.13589383 -129.3359375 60.20507812 C-130.97924376 60.89825477 -132.62247554 61.59160799 -134.265625 62.28515625 C-135.38158051 62.75563133 -135.38158051 62.75563133 -136.52008057 63.23561096 C-141.06370244 65.15828747 -145.564326 67.15296424 -150.03924561 69.23118591 C-152.43881979 70.17206175 -154.44799615 70.32929082 -157 70 C-154.02959174 68.01972782 -151.25247573 66.75490445 -147.96484375 65.375 C-147.35186432 65.11652786 -146.73888489 64.85805573 -146.10733032 64.5917511 C-144.76424217 64.02567478 -143.42058789 63.4609403 -142.07644653 62.89736938 C-139.12215422 61.65793145 -136.17145543 60.41004242 -133.22050476 59.16267395 C-130.81230568 58.14477119 -128.40371619 57.12779589 -125.99511719 56.11083984 C-88.0583957 40.08486736 -50.41305346 23.48983627 -13.21484375 5.81005859 C-12.54295517 5.49121704 -11.87106659 5.17237549 -11.17881775 4.84387207 C-9.38345376 3.99121258 -7.58926351 3.13608285 -5.79516602 2.28076172 C-3 1 -3 1 0 0 Z " fill="#28B1CF" transform="translate(736,707)"/>
<path d="M0 0 C0.33 0 0.66 0 1 0 C1.01030746 0.71330475 1.02061493 1.4266095 1.03123474 2.16152954 C1.12941009 8.89973037 1.23195205 15.63784915 1.33933926 22.37590981 C1.39438914 25.83960573 1.44777925 29.30331032 1.49731445 32.76708984 C1.5544001 36.7536646 1.61881605 40.74010502 1.68359375 44.7265625 C1.70030624 45.96427399 1.71701874 47.20198547 1.73423767 48.47720337 C1.75418289 49.6379538 1.77412811 50.79870422 1.79467773 51.99462891 C1.81022202 53.01166901 1.8257663 54.02870911 1.84178162 55.0765686 C2.00614506 58.11354344 2.46357141 61.00859706 3 64 C3.08244638 65.39801052 3.13042529 66.79878128 3.1328125 68.19921875 C3.13410156 68.93333984 3.13539063 69.66746094 3.13671875 70.42382812 C3.13285156 71.17083984 3.12898437 71.91785156 3.125 72.6875 C3.12886719 73.44611328 3.13273438 74.20472656 3.13671875 74.98632812 C3.13096158 78.2477639 3.03828751 80.88513748 2 84 C1.89810183 85.76320107 1.85370324 87.52996348 1.84178162 89.29606628 C1.8319928 90.3940303 1.82220398 91.49199432 1.81211853 92.62322998 C1.80636307 93.82804016 1.8006076 95.03285034 1.79467773 96.27416992 C1.78477814 97.54257217 1.77487854 98.81097443 1.76467896 100.11781311 C1.7376366 103.59684318 1.71662343 107.07588681 1.69667697 110.55496383 C1.67481329 114.19050172 1.64742647 117.82599786 1.62062073 121.46150208 C1.57069901 128.34624337 1.52575825 135.23100784 1.48259836 142.11579448 C1.43322154 149.95371101 1.37830506 157.79158564 1.32291877 165.62946165 C1.20910672 181.75293581 1.10226598 197.87644838 1 214 C0.67 214 0.34 214 0 214 C0 143.38 0 72.76 0 0 Z " fill="#081483" transform="translate(164,366)"/>
<path d="M0 0 C-6.97826308 3.63494884 -14.05314844 6.75215948 -21.375 9.625 C-22.45080322 10.05103516 -23.52660645 10.47707031 -24.63500977 10.91601562 C-28.08822904 12.28189494 -31.5440255 13.64110909 -35 15 C-37.31389276 15.91383294 -39.62769478 16.82789567 -41.94140625 17.7421875 C-47.77125436 20.04308962 -53.60708348 22.32836779 -59.4453125 24.60791016 C-63.09197508 26.03601936 -66.73351734 27.47670926 -70.375 28.91796875 C-72.7289917 29.84159188 -75.0831521 30.7647852 -77.4375 31.6875 C-78.52732178 32.12191406 -79.61714355 32.55632813 -80.73999023 33.00390625 C-82.25894897 33.59558594 -82.25894897 33.59558594 -83.80859375 34.19921875 C-84.69345459 34.54815186 -85.57831543 34.89708496 -86.48999023 35.2565918 C-89.12119934 36.03589651 -91.27160022 36.14115052 -94 36 C-90.82554295 33.8836953 -87.89462449 32.72499215 -84.32421875 31.3828125 C-83.65541687 31.12976852 -82.98661499 30.87672455 -82.29754639 30.61601257 C-80.85182239 30.0690876 -79.40552068 29.52368784 -77.95870972 28.97964478 C-74.0886246 27.52335124 -70.22379362 26.05328422 -66.359375 24.58203125 C-65.57175278 24.28223862 -64.78413055 23.98244598 -63.97264099 23.67356873 C-56.43025185 20.79554097 -48.9286201 17.82107103 -41.4375 14.8125 C-40.22505615 14.32644287 -39.0126123 13.84038574 -37.76342773 13.33959961 C-31.71557742 10.91028134 -25.67640372 8.4609048 -19.64453125 5.9921875 C-18.48187744 5.51934326 -17.31922363 5.04649902 -16.12133789 4.55932617 C-13.92378532 3.66512327 -11.72881235 2.76454628 -9.53686523 1.85668945 C-8.57079346 1.46441162 -7.60472168 1.07213379 -6.609375 0.66796875 C-5.76342773 0.32016357 -4.91748047 -0.0276416 -4.04589844 -0.38598633 C-2 -1 -2 -1 0 0 Z " fill="#349AC9" transform="translate(579,778)"/>
<path d="M0 0 C-0.63808594 0.26554687 -1.27617188 0.53109375 -1.93359375 0.8046875 C-2.75988281 1.15789062 -3.58617187 1.51109375 -4.4375 1.875 C-5.26121094 2.22304687 -6.08492187 2.57109375 -6.93359375 2.9296875 C-9.15746715 3.8244937 -9.15746715 3.8244937 -10 6 C-3.73 6 2.54 6 9 6 C9 6.33 9 6.66 9 7 C-24.99 7 -58.98 7 -94 7 C-94 6.67 -94 6.34 -94 6 C-93.08117538 6.00079559 -92.16235077 6.00159119 -91.21568298 6.00241089 C-82.49340131 6.00463233 -73.77177021 5.97786099 -65.04967403 5.9197216 C-60.56707513 5.89083202 -56.08499256 5.87257546 -51.60229492 5.87988281 C-47.26411892 5.88654226 -42.92695728 5.8636215 -38.58899117 5.82144547 C-36.94631125 5.81043052 -35.30352697 5.80950729 -33.66084099 5.81957626 C-23.28947169 5.87492223 -15.37869406 4.62328629 -5.93824768 0.18655396 C-3 -1 -3 -1 0 0 Z " fill="#026CAB" transform="translate(525,1101)"/>
<path d="M0 0 C-0.33 0.99 -0.66 1.98 -1 3 C29.69 3.33 60.38 3.66 92 4 C92 4.33 92 4.66 92 5 C59.33 5 26.66 5 -7 5 C-6 2 -6 2 -4.0625 0.8125 C-2 0 -2 0 0 0 Z " fill="#004296" transform="translate(174,1103)"/>
<path d="M0 0 C4.47582473 1.51722872 8.03922354 3.97815213 11.8125 6.75 C12.42689941 7.19520996 13.04129883 7.64041992 13.67431641 8.09912109 C18.15185473 11.35197304 22.59372589 14.65123168 27 18 C23.14013021 18 20.87969435 16.31921714 17.6875 14.375 C10.70040482 10.2342248 3.53462427 7.02301035 -4 4 C-2.68 3.67 -1.36 3.34 0 3 C0 2.01 0 1.02 0 0 Z " fill="#2552AE" transform="translate(806,562)"/>
<path d="M0 0 C2.29633824 3.44450737 2.54016485 5.93812283 3 10 C2.01 10.33 1.02 10.66 0 11 C-0.33 15.95 -0.66 20.9 -1 26 C-1.33 26 -1.66 26 -2 26 C-2.33 21.71 -2.66 17.42 -3 13 C-5.31 14.98 -7.62 16.96 -10 19 C-10 18.34 -10 17.68 -10 17 C-10.66 16.67 -11.32 16.34 -12 16 C-11.3503125 15.59007812 -10.700625 15.18015625 -10.03125 14.7578125 C-9.1959375 14.21898437 -8.360625 13.68015625 -7.5 13.125 C-6.6646875 12.59132813 -5.829375 12.05765625 -4.96875 11.5078125 C-4.3190625 11.01023437 -3.669375 10.51265625 -3 10 C-2.89459074 7.78918149 -2.89459074 7.78918149 -4 5 C-3.34 4.67 -2.68 4.34 -2 4 C-0.86649466 1.98330173 -0.86649466 1.98330173 0 0 Z " fill="#09BBC7" transform="translate(883,618)"/>
<path d="M0 0 C0.66 0.33 1.32 0.66 2 1 C-3.6691069 5.36812965 -9.58159716 8.3745328 -16.0625 11.375 C-18.10722421 12.33627579 -20.15149595 13.29851463 -22.1953125 14.26171875 C-23.6788623 14.9585376 -23.6788623 14.9585376 -25.19238281 15.66943359 C-30.84400926 18.34781308 -36.42386285 21.16844335 -42 24 C-42.66 23.34 -43.32 22.68 -44 22 C-43.40799805 21.71914551 -42.81599609 21.43829102 -42.20605469 21.14892578 C-31.30560878 15.97173905 -20.42346347 10.76230852 -9.625 5.375 C-8.7700293 4.94977051 -7.91505859 4.52454102 -7.03417969 4.08642578 C-6.25204102 3.69438965 -5.46990234 3.30235352 -4.6640625 2.8984375 C-3.97779785 2.55474121 -3.2915332 2.21104492 -2.58447266 1.85693359 C-1.00496849 1.10016481 -1.00496849 1.10016481 0 0 Z " fill="#20B5CD" transform="translate(783,683)"/>
<path d="M0 0 C-0.63808594 0.26554687 -1.27617188 0.53109375 -1.93359375 0.8046875 C-2.75988281 1.15789062 -3.58617187 1.51109375 -4.4375 1.875 C-5.26121094 2.22304687 -6.08492187 2.57109375 -6.93359375 2.9296875 C-9.15746715 3.8244937 -9.15746715 3.8244937 -10 6 C-3.73 6 2.54 6 9 6 C9 6.33 9 6.66 9 7 C0.09 7 -8.82 7 -18 7 C-18 6.34 -18 5.68 -18 5 C-15.56686628 3.96748938 -13.12943108 2.94880479 -10.6875 1.9375 C-9.65206055 1.49567383 -9.65206055 1.49567383 -8.59570312 1.04492188 C-3.33984375 -1.11328125 -3.33984375 -1.11328125 0 0 Z " fill="#044F9B" transform="translate(525,1101)"/>
<path d="M0 0 C16.8929385 0.77904328 16.8929385 0.77904328 24 3 C24 3.33 24 3.66 24 4 C18.38478739 4.17826072 13.5353038 3.85971989 8.0859375 2.51171875 C5.41311883 1.85602728 2.71883043 1.4182816 0 1 C0 0.67 0 0.34 0 0 Z " fill="#35A7DC" transform="translate(708,526)"/>
<path d="M0 0 C2.475 0.99 2.475 0.99 5 2 C5 2.99 5 3.98 5 5 C2.75 5.6875 2.75 5.6875 0 6 C-2.3125 4.5625 -2.3125 4.5625 -4 3 C-2.68 3 -1.36 3 0 3 C0 2.01 0 1.02 0 0 Z " fill="#2B5AB9" transform="translate(806,562)"/>
<path d="M0 0 C0.33 0 0.66 0 1 0 C1.06058594 0.69867187 1.12117187 1.39734375 1.18359375 2.1171875 C1.26738281 3.02726563 1.35117188 3.93734375 1.4375 4.875 C1.51871094 5.77992188 1.59992188 6.68484375 1.68359375 7.6171875 C1.86989285 10.01110861 1.86989285 10.01110861 3 12 C3.039992 13.99960012 3.04346799 16.00047242 3 18 C2.34 18.33 1.68 18.66 1 19 C0.15976812 14.64667264 -0.10770995 10.55557481 -0.0625 6.125 C-0.05347656 4.97257813 -0.04445312 3.82015625 -0.03515625 2.6328125 C-0.02355469 1.76398437 -0.01195312 0.89515625 0 0 Z " fill="#0D1784" transform="translate(166,599)"/>
<path d="M0 0 C2 3 2 3 2 7 C0.02 7.99 0.02 7.99 -2 9 C-2.66 7.68 -3.32 6.36 -4 5 C-3.34 4.67 -2.68 4.34 -2 4 C-0.86649466 1.98330173 -0.86649466 1.98330173 0 0 Z " fill="#2ECEDB" transform="translate(883,618)"/>
<path d="M0 0 C0.66 0.33 1.32 0.66 2 1 C-0.64 3.64 -3.28 6.28 -6 9 C-6.33 8.34 -6.66 7.68 -7 7 C-7.66 6.67 -8.32 6.34 -9 6 C-6.03 4.02 -3.06 2.04 0 0 Z " fill="#1AC3CA" transform="translate(880,628)"/>
</svg>
